<?xml version="1.0" encoding="iso-8859-1"?>
<!-- Generator: Adobe Illustrator 16.0.0, SVG Export Plug-In . SVG Version: 6.00 Build 0)  -->
<!DOCTYPE svg PUBLIC "-//W3C//DTD SVG 1.1//EN" "http://www.w3.org/Graphics/SVG/1.1/DTD/svg11.dtd">
<svg version="1.1" id="Capa_1" xmlns="http://www.w3.org/2000/svg" xmlns:xlink="http://www.w3.org/1999/xlink" x="0px" y="0px"
	 width="45.466px" height="45.465px" viewBox="0 0 45.466 45.465" style="enable-background:new 0 0 45.466 45.465;"
	 xml:space="preserve">
<g>
	<g>
		<path d="M10.701,1.771c-0.049-0.736-0.659-1.298-1.396-1.298H9.277H3.988H3.96c-0.736,0-1.348,0.562-1.397,1.298L0.766,29.324
			h11.732L10.701,1.771z"/>
		<path d="M25.554,44.993V32.305h-1.017V20.182c0-0.435,0.371-0.813,0.805-0.813h5.396c0.435,0,0.774,0.378,0.774,0.813v2.167
			c-2.193,0.005-3.996,1.817-3.996,4.014v18.63H38.49v-18.63c0-2.198-1.777-4.015-3.978-4.015h-0.02v-2.167
			c0-2.082-1.676-3.793-3.756-3.793h-5.396c-2.08,0-3.785,1.711-3.785,3.793v12.122h-3.995V17.568c0-2.292,1.881-4.16,4.172-4.16
			h12.613c2.292,0,4.145,1.868,4.145,4.16v4.463c0,0,0.916,0.632,1.278,1.233c0.525,0.865,0.686,2.011,0.686,3.099v18.63h1.223
			c2.093,0,3.789-1.695,3.789-3.789V26.363c0-2.198-1.783-4.015-3.982-4.015h-0.013v-6.44c0-3.024-2.439-5.48-5.464-5.48H20.075
			c-3.025,0-5.492,2.456-5.492,5.48v16.396H0.572l-0.564,8.654c-0.068,1.045,0.299,2.072,1.016,2.836
			c0.716,0.766,1.718,1.199,2.765,1.199H25.554z"/>
	</g>
</g>
<g>
</g>
<g>
</g>
<g>
</g>
<g>
</g>
<g>
</g>
<g>
</g>
<g>
</g>
<g>
</g>
<g>
</g>
<g>
</g>
<g>
</g>
<g>
</g>
<g>
</g>
<g>
</g>
<g>
</g>
</svg>
